<svg width="15" height="15" viewBox="0 0 15 15" fill="none" xmlns="http://www.w3.org/2000/svg">
<path d="M1.21428 7.86326C1.25946 7.62787 1.46534 7.45765 1.70503 7.45751H2.18778L2.22328 7.24476C2.25869 7.03108 2.42705 6.86413 2.64103 6.83051C2.68853 6.82301 2.73653 6.81801 2.78378 6.81151C2.70191 6.42931 2.76993 6.03026 2.97378 5.69676C2.86607 5.41738 2.88618 5.10484 3.02878 4.84156C3.17139 4.57827 3.42218 4.39069 3.71503 4.32826C3.90225 3.32626 4.77395 2.5979 5.79328 2.59176C5.81828 2.59176 5.84053 2.59501 5.86428 2.59576C6.02715 2.33997 6.29568 2.17021 6.5966 2.13278C6.89753 2.09536 7.19945 2.19417 7.42003 2.40226C7.69789 2.22164 8.02212 2.12535 8.35353 2.12501C8.88751 2.1272 9.39078 2.37505 9.71803 2.79701C10.0814 2.69105 10.4732 2.75611 10.7829 2.97381C11.0925 3.19152 11.2863 3.53822 11.3095 3.91601C11.6912 4.07645 11.9395 4.45 11.9398 4.86401C11.939 4.93578 11.9306 5.00726 11.9148 5.07726C12.2523 5.58609 12.3405 6.22067 12.1545 6.80226C12.2215 6.81151 12.29 6.81976 12.3545 6.82926C12.5696 6.86171 12.7395 7.02875 12.7755 7.24326L12.811 7.45676H13.295C13.5343 7.45693 13.7399 7.62661 13.7855 7.86151L14.8803 13.482C14.923 13.7021 14.8651 13.9298 14.7222 14.1027C14.5794 14.2756 14.3668 14.3755 14.1425 14.375H8.92903C8.72203 14.7165 8.09303 14.875 7.50003 14.875C6.91328 14.875 6.29028 14.7203 6.07728 14.375H0.857529C0.633352 14.3754 0.420733 14.2756 0.277929 14.1028C0.135125 13.93 0.0771093 13.7023 0.119779 13.4823L1.21428 7.86326ZM11.1838 5.31651C11.3868 5.19447 11.4836 4.95218 11.4208 4.72383C11.3579 4.49548 11.1506 4.33694 10.9138 4.33601C10.748 4.33552 10.592 4.41431 10.494 4.54801C10.4408 4.61973 10.3533 4.65761 10.2646 4.64737C10.1759 4.63713 10.0994 4.58033 10.0639 4.49837C10.0284 4.4164 10.0393 4.32173 10.0925 4.25001C10.2623 4.02312 10.5195 3.87798 10.8015 3.85001C10.727 3.49989 10.4182 3.24925 10.0603 3.24826C10.0298 3.24981 9.99939 3.25315 9.96928 3.25826C9.98939 3.30952 10.0069 3.36175 10.0218 3.41476C10.0529 3.5471 9.97256 3.68004 9.84093 3.71404C9.7093 3.74803 9.57464 3.67062 9.53778 3.53976C9.50935 3.42988 9.46568 3.32453 9.40803 3.22676C9.18627 2.85525 8.78619 2.62694 8.35353 2.62501C8.11805 2.62605 7.88797 2.69554 7.69128 2.82501C7.72875 2.93029 7.7486 3.04102 7.75003 3.15276C7.75003 3.29083 7.6381 3.40276 7.50003 3.40276C7.36196 3.40276 7.25003 3.29083 7.25003 3.15276C7.25003 2.86233 7.01459 2.62689 6.72415 2.62689C6.43372 2.62689 6.19828 2.86233 6.19828 3.15276C6.19828 3.29083 6.08635 3.40276 5.94828 3.40276C5.81021 3.40276 5.69828 3.29083 5.69828 3.15276C5.69828 3.13351 5.70303 3.11526 5.70403 3.09601C4.98819 3.14018 4.38625 3.64902 4.22353 4.34751C4.34015 4.38146 4.44972 4.43608 4.54703 4.50876C4.61848 4.56235 4.65592 4.64999 4.64523 4.73867C4.63455 4.82734 4.57737 4.90358 4.49523 4.93867C4.4131 4.97375 4.31848 4.96235 4.24703 4.90876C4.04725 4.76085 3.77128 4.77265 3.58486 4.93707C3.39843 5.10149 3.35224 5.37382 3.47403 5.59051C3.52845 5.6862 3.61115 5.7627 3.71078 5.80951C3.81526 5.8601 3.87117 5.97595 3.84577 6.08922C3.82038 6.20249 3.72035 6.28338 3.60428 6.28451C3.56762 6.28457 3.53141 6.27645 3.49828 6.26076C3.43202 6.22865 3.36941 6.18951 3.31153 6.14401C3.1823 6.5114 3.26335 6.92001 3.52303 7.21026L3.52903 7.21651C3.85472 7.56933 4.37428 7.66468 4.80403 7.45051C4.84612 7.42828 4.88656 7.40305 4.92503 7.37501C4.74089 7.11685 4.71545 6.77775 4.85903 6.49501C4.89922 6.41521 4.97894 6.36291 5.06814 6.35781C5.15735 6.35272 5.2425 6.3956 5.29152 6.47031C5.34054 6.54502 5.34597 6.64021 5.30578 6.72001C5.22357 6.88525 5.27485 7.08577 5.42628 7.19126C5.51521 7.25047 5.62506 7.26919 5.72858 7.24279C5.8321 7.21639 5.91957 7.14733 5.96928 7.05276C6.00925 6.97287 6.0888 6.92037 6.17798 6.91503C6.26715 6.9097 6.3524 6.95235 6.4016 7.02691C6.45081 7.10147 6.4565 7.19662 6.41653 7.27651C6.26991 7.57248 5.96782 7.7594 5.63753 7.75851C5.53 7.75778 5.42356 7.73684 5.32378 7.69676C5.23448 7.77494 5.13611 7.84209 5.03078 7.89676C4.67448 8.08145 4.26015 8.11975 3.87603 8.00351C4.12309 8.34085 4.49283 8.56756 4.90553 8.63476C5.03392 8.65566 5.12483 8.77153 5.11458 8.90121C5.10434 9.03088 4.99636 9.13103 4.86628 9.13151C4.85297 9.13151 4.83968 9.13051 4.82653 9.12851C4.6743 9.10216 4.52552 9.05872 4.38303 8.99901C4.30601 9.13518 4.2435 9.27905 4.19653 9.42826C4.18792 9.45432 4.18354 9.48158 4.18353 9.50901C4.18359 9.61706 4.24813 9.71465 4.34753 9.75701C4.46252 9.80149 4.59308 9.7664 4.67028 9.67026C4.86389 9.4429 5.11742 9.27443 5.40203 9.18401C5.94228 9.00301 6.15078 8.84126 6.23928 8.66526C6.10956 8.64908 5.98139 8.62232 5.85603 8.58526C5.77064 8.559 5.70575 8.48919 5.6858 8.40211C5.66585 8.31503 5.69386 8.22393 5.7593 8.16311C5.82473 8.10229 5.91764 8.081 6.00303 8.10726C6.14331 8.1503 6.28811 8.17689 6.43453 8.18651C6.71661 8.20856 7 8.1658 7.26303 8.06151C7.36178 8.023 7.4741 8.05095 7.54328 8.13126C7.90727 8.54938 8.53024 8.62044 8.97905 8.29505C9.42785 7.96965 9.554 7.35546 9.26978 6.87951C9.22373 6.80266 9.22219 6.70707 9.26573 6.62877C9.30927 6.55047 9.39127 6.50134 9.48086 6.4999C9.57044 6.49845 9.65398 6.54491 9.70003 6.62176C9.75967 6.72328 9.80765 6.83121 9.84303 6.94351C10.0399 6.93315 10.1951 6.77213 10.1983 6.57501V6.56876C10.1984 6.50279 10.2249 6.43961 10.2718 6.39327C10.3188 6.34693 10.3823 6.32128 10.4483 6.32201C10.5869 6.32338 10.6986 6.43634 10.6983 6.57501C10.6972 7.01838 10.3628 7.38999 9.92203 7.43776C9.92113 7.52157 9.91352 7.60517 9.89928 7.68776C10.4575 7.80855 11.0364 7.6079 11.4002 7.1676C11.7639 6.72731 11.8517 6.12089 11.6278 5.59551C11.5718 5.6521 11.5094 5.70186 11.4418 5.74376C11.3237 5.81294 11.1719 5.7743 11.1013 5.65706C11.0306 5.53982 11.0674 5.38758 11.1838 5.31551V5.31651ZM12.2838 7.32476C12.1685 7.30776 12.0495 7.29276 11.9313 7.27726C11.469 8.01592 10.585 8.37458 9.73878 8.16676C9.5114 8.5983 9.09593 8.89925 8.61501 8.98076C8.13409 9.06227 7.64265 8.91503 7.28578 8.58251C7.11589 8.63319 6.9409 8.66488 6.76403 8.67701C6.64328 9.13501 6.29428 9.41251 5.56103 9.65826C5.36336 9.72023 5.18702 9.83638 5.05203 9.99351C4.90195 10.172 4.6812 10.2757 4.44803 10.2773C4.34605 10.2772 4.24513 10.2567 4.15128 10.2168C3.86789 10.0957 3.68406 9.81719 3.68403 9.50901C3.6838 9.42864 3.69663 9.34877 3.72203 9.27251C3.77825 9.09587 3.8523 8.92541 3.94303 8.76376C3.51791 8.45816 3.22177 8.00525 3.11228 7.49326C3.05903 7.43 3.01088 7.36263 2.96828 7.29176C2.88453 7.30251 2.80078 7.31201 2.71653 7.32601L1.81403 12.7545C3.57815 12.1654 5.4859 12.1654 7.25003 12.7545V9.62501C7.25003 9.48694 7.36196 9.37501 7.50003 9.37501C7.6381 9.37501 7.75003 9.48694 7.75003 9.62501V12.7555C9.51395 12.1659 11.4217 12.1652 13.186 12.7535L12.2838 7.32476ZM14.3373 13.783C14.3845 13.726 14.4038 13.6508 14.3898 13.578L13.295 7.95751H12.895L13.6795 12.6723C13.7071 12.8439 13.6439 13.0175 13.5125 13.1313C13.3811 13.245 13.2002 13.2827 13.0343 13.2308C11.7015 12.799 10.2817 12.7089 8.90503 12.9688L8.97953 13.875H14.1425C14.2179 13.8751 14.2894 13.8413 14.3373 13.783ZM7.50003 14.375C8.10228 14.375 8.44778 14.197 8.49853 14.1178L8.41253 13.0803C8.13763 13.1487 7.86862 13.2389 7.60803 13.35C7.57433 13.3663 7.53744 13.3748 7.50003 13.375C7.46252 13.375 7.42551 13.3664 7.39178 13.35C7.13135 13.2383 6.86241 13.1475 6.58753 13.0785L6.50153 14.1175C6.55228 14.197 6.89778 14.375 7.50003 14.375ZM0.662779 13.783C0.710637 13.8413 0.782108 13.8751 0.857529 13.875H6.01978L6.09478 12.967C4.71738 12.7077 3.2969 12.7985 1.96378 13.2313C1.79794 13.2825 1.6174 13.2443 1.48648 13.1304C1.35556 13.0164 1.29289 12.8428 1.32078 12.6715L2.10453 7.95776H1.70453L0.609529 13.5778C0.59566 13.6507 0.6152 13.726 0.662779 13.783Z" fill="#021EE8"/>
<path d="M8.32862 5.79624C8.43096 5.88884 8.4389 6.04685 8.34637 6.14924C8.13429 6.38339 7.85401 6.545 7.54512 6.61124C7.68501 6.80838 7.91189 6.92536 8.15362 6.92499C8.29169 6.92499 8.40362 7.03692 8.40362 7.17499C8.40362 7.31306 8.29169 7.42499 8.15362 7.42499C7.63608 7.42706 7.17171 7.10741 6.98887 6.62324C6.36723 6.52022 5.87509 6.04173 5.75462 5.42324C5.736 5.33478 5.7666 5.24316 5.83463 5.18363C5.90267 5.12409 5.99754 5.10593 6.08275 5.13612C6.16797 5.16632 6.23024 5.24016 6.24562 5.32924C6.29464 5.58709 6.44341 5.81519 6.65962 5.96399C7.07556 6.24413 7.63339 6.18055 7.97562 5.81399C8.06822 5.71165 8.22622 5.70371 8.32862 5.79624Z" fill="#021EE8"/>
<path d="M9.19995 5.525C9.06188 5.525 8.94995 5.41307 8.94995 5.275C8.94995 5.10261 8.88147 4.93728 8.75957 4.81538C8.63767 4.69348 8.47234 4.625 8.29995 4.625C8.16188 4.625 8.04995 4.51307 8.04995 4.375C8.04995 4.23693 8.16188 4.125 8.29995 4.125C8.93479 4.12569 9.44926 4.64016 9.44995 5.275C9.44995 5.34131 9.42361 5.40489 9.37673 5.45178C9.32984 5.49866 9.26626 5.525 9.19995 5.525Z" fill="#021EE8"/>
<path d="M7.25 0.625V0.375C7.25 0.236929 7.36193 0.125 7.5 0.125C7.63807 0.125 7.75 0.236929 7.75 0.375V0.625C7.75 0.763071 7.63807 0.875 7.5 0.875C7.36193 0.875 7.25 0.763071 7.25 0.625Z" fill="#021EE8"/>
<path d="M3.39755 1.91898L3.64755 2.16898C3.71254 2.23175 3.7386 2.3247 3.71572 2.41211C3.69284 2.49951 3.62458 2.56778 3.53718 2.59065C3.44977 2.61353 3.35682 2.58747 3.29405 2.52248L3.04405 2.27248C2.97906 2.20971 2.953 2.11676 2.97588 2.02935C2.99876 1.94195 3.06702 1.87368 3.15442 1.85081C3.24183 1.82793 3.33478 1.85399 3.39755 1.91898Z" fill="#021EE8"/>
<path d="M11.5294 2.59573C11.4283 2.59571 11.3372 2.5348 11.2985 2.44139C11.2598 2.34799 11.2812 2.24048 11.3526 2.16898L11.6026 1.91898C11.6654 1.85399 11.7584 1.82793 11.8458 1.85081C11.9332 1.87368 12.0014 1.94195 12.0243 2.02935C12.0472 2.11676 12.0211 2.20971 11.9561 2.27248L11.7061 2.52248C11.6593 2.56937 11.5957 2.59572 11.5294 2.59573Z" fill="#021EE8"/>
<path d="M9.60486 1.54372C9.57202 1.54364 9.5395 1.53719 9.50911 1.52472C9.44784 1.49933 9.39916 1.45064 9.37379 1.38936C9.34843 1.32808 9.34845 1.25923 9.37386 1.19797L9.66111 0.504965C9.69402 0.420559 9.77001 0.360559 9.85975 0.348132C9.94949 0.335706 10.0389 0.372798 10.0935 0.445086C10.1481 0.517374 10.1594 0.613546 10.1229 0.696465L9.83586 1.38947C9.79714 1.48286 9.70597 1.54374 9.60486 1.54372Z" fill="#021EE8"/>
<path d="M5.01235 0.369761C5.13986 0.317011 5.28599 0.377547 5.33885 0.505011L5.6261 1.19801C5.65159 1.2593 5.65165 1.32822 5.62628 1.38956C5.60091 1.4509 5.55219 1.49963 5.49085 1.52501C5.46046 1.53749 5.42795 1.54394 5.3951 1.54401C5.29399 1.54404 5.20282 1.48316 5.1641 1.38976L4.8771 0.696761C4.85161 0.635469 4.85154 0.566556 4.87692 0.505214C4.90229 0.443873 4.95101 0.395141 5.01235 0.369761Z" fill="#021EE8"/>
<path d="M2.41865 4.52048C2.38578 4.52042 2.35324 4.51387 2.3229 4.50123L1.63015 4.21423C1.54762 4.18006 1.48959 4.10447 1.47791 4.01591C1.46623 3.92736 1.50268 3.8393 1.57353 3.78491C1.64438 3.73052 1.73887 3.71806 1.8214 3.75223L2.5144 4.03923C2.62498 4.08465 2.68793 4.20201 2.6646 4.31926C2.64127 4.43651 2.5382 4.52084 2.41865 4.52048Z" fill="#021EE8"/>
<path d="M12.677 4.50123C12.5494 4.55411 12.4031 4.49356 12.3502 4.36598C12.2973 4.2384 12.3579 4.09211 12.4855 4.03923L13.1785 3.75223C13.306 3.69942 13.4523 3.76003 13.5051 3.8876C13.5579 4.01518 13.4973 4.16142 13.3697 4.21423L12.677 4.50123Z" fill="#021EE8"/>
</svg>
