<svg width="299" height="337" viewBox="0 0 299 337" fill="none" xmlns="http://www.w3.org/2000/svg">
<g clip-path="url(#clip0)">
<g opacity="0.2">
<path opacity="0.2" d="M222.1 307.582C221.831 308.082 221.52 308.559 221.172 309.008C218.091 306.846 214.957 304.724 211.771 302.642L211.978 302.234C212.715 300.813 213.818 299.613 215.174 298.759C216.933 297.68 218.916 297.443 220.548 298.32C222.179 299.198 223.089 300.953 223.186 303.002C223.236 304.597 222.861 306.178 222.1 307.582Z" fill="#3F3D56"/>
<path opacity="0.2" d="M226.391 299.549C228.329 295.898 227.635 291.741 224.841 290.265C222.047 288.788 218.211 290.55 216.273 294.201C214.335 297.852 215.029 302.009 217.823 303.486C220.617 304.962 224.453 303.2 226.391 299.549Z" fill="#3F3D56"/>
<path opacity="0.2" d="M230.68 291.47C232.618 287.819 231.924 283.663 229.13 282.186C226.336 280.709 222.5 282.472 220.562 286.122C218.624 289.773 219.318 293.93 222.112 295.407C224.906 296.884 228.742 295.121 230.68 291.47Z" fill="#3F3D56"/>
<path opacity="0.2" d="M234.97 283.392C236.908 279.741 236.214 275.584 233.42 274.107C230.626 272.63 226.79 274.393 224.852 278.044C222.913 281.695 223.607 285.851 226.401 287.328C229.195 288.805 233.032 287.042 234.97 283.392Z" fill="#3F3D56"/>
<path opacity="0.2" d="M239.255 275.317C241.193 271.666 240.499 267.51 237.705 266.033C234.911 264.556 231.075 266.319 229.137 269.969C227.199 273.62 227.892 277.777 230.686 279.254C233.481 280.731 237.317 278.968 239.255 275.317Z" fill="#3F3D56"/>
<path opacity="0.2" d="M244.586 207.329C244.352 206.086 244.205 204.828 244.146 203.564L258.622 208.426L244.186 200.932C244.395 197.208 245.365 193.567 247.034 190.23C248.703 186.893 251.038 183.931 253.895 181.526L267.882 201.709L257.021 179.262C260.213 177.269 263.782 175.953 267.506 175.396C271.229 174.839 275.028 175.053 278.665 176.025C282.303 176.997 285.7 178.706 288.647 181.046C291.593 183.385 294.025 186.305 295.791 189.623C297.557 192.942 298.62 196.587 298.912 200.333C299.205 204.079 298.721 207.845 297.491 211.396C296.261 214.947 294.312 218.207 291.764 220.974C289.216 223.74 286.125 225.954 282.682 227.476C283.04 229.413 283.188 231.383 283.122 233.351L261.137 233.175L282.805 236.738C282.073 241.228 280.23 245.464 277.444 249.065C274.658 252.665 271.016 255.516 266.848 257.359C267.767 262.412 267.241 267.62 265.333 272.389C263.424 277.158 260.209 281.295 256.055 284.327C251.902 287.359 246.977 289.163 241.844 289.534C236.711 289.905 231.577 288.827 227.029 286.423C222.481 284.02 218.702 280.388 216.125 275.943C213.548 271.498 212.277 266.419 212.456 261.287C212.635 256.155 214.258 251.177 217.139 246.922C220.02 242.667 224.043 239.306 228.748 237.225C227.652 231.187 228.621 224.957 231.5 219.534C234.379 214.112 239 209.812 244.621 207.325L244.586 207.329Z" fill="#6C63FF"/>
<path opacity="0.1" d="M279.934 245.153C277.063 250.581 272.44 254.883 266.813 257.363C267.731 262.416 267.206 267.625 265.297 272.394C263.389 277.163 260.174 281.3 256.02 284.331C251.866 287.363 246.942 289.168 241.809 289.538C236.676 289.909 231.542 288.831 226.994 286.428C222.446 284.024 218.667 280.393 216.09 275.948C213.513 271.503 212.242 266.424 212.421 261.292C212.6 256.16 214.223 251.181 217.104 246.926C219.985 242.671 224.008 239.311 228.713 237.229C227.649 231.398 281.376 242.437 279.934 245.153Z" fill="black"/>
</g>
<g opacity="0.2">
<path opacity="0.2" d="M95.4158 272.777C95.6764 273.836 96.028 274.871 96.4667 275.87C103.241 273.281 110.093 270.795 117.023 268.411C116.961 268.13 116.9 267.841 116.829 267.534C116.126 264.533 114.634 261.774 112.507 259.54C109.741 256.696 106.153 255.31 102.702 256.152C99.25 256.995 96.7085 259.869 95.5609 263.651C94.6972 266.625 94.6471 269.776 95.4158 272.777Z" fill="#726F97"/>
<path opacity="0.2" d="M105.377 267.03C111.291 265.59 114.554 258.16 112.664 250.437C110.774 242.714 104.448 237.621 98.5336 239.061C92.6192 240.502 89.3567 247.931 91.2464 255.655C93.1362 263.378 99.4626 268.471 105.377 267.03Z" fill="#726F97"/>
<path opacity="0.2" d="M101.19 249.936C107.105 248.495 110.367 241.066 108.478 233.342C106.588 225.619 100.261 220.526 94.3471 221.967C88.4327 223.407 85.1701 230.837 87.0599 238.56C88.9496 246.283 95.2761 251.376 101.19 249.936Z" fill="#726F97"/>
<path opacity="0.2" d="M97.0093 232.841C102.924 231.4 106.186 223.971 104.297 216.248C102.407 208.524 96.0803 203.431 90.1659 204.872C84.2516 206.313 80.989 213.742 82.8787 221.465C84.7685 229.189 91.095 234.282 97.0093 232.841Z" fill="#726F97"/>
<path opacity="0.2" d="M92.8281 215.751C98.7425 214.31 102.005 206.881 100.115 199.157C98.2256 191.434 91.8991 186.341 85.9848 187.782C80.0704 189.222 76.8078 196.651 78.6976 204.375C80.5873 212.098 86.9138 217.191 92.8281 215.751Z" fill="#726F97"/>
<path opacity="0.2" d="M100.86 75.0473C101.87 72.834 102.724 70.5528 103.414 68.2205L74.152 70.4624L104.65 63.2626C106.02 56.2123 105.934 48.9573 104.397 41.9413C102.86 34.9254 99.904 28.2962 95.7107 22.4594L60.0418 53.5488L90.9355 16.7688C85.9198 11.5522 79.8817 7.42151 73.1971 4.63379C66.5124 1.84606 59.3243 0.460989 52.0801 0.564766C44.8358 0.668544 37.6905 2.25895 31.0888 5.23701C24.4872 8.21507 18.5704 12.517 13.7068 17.8752C8.84324 23.2333 5.13692 29.5329 2.81854 36.382C0.500167 43.231 -0.380645 50.4829 0.230911 57.6862C0.842467 64.8896 2.93331 71.8903 6.37331 78.2526C9.81331 84.6148 14.5288 90.2026 20.2264 94.668C18.6512 98.1147 17.4555 101.722 16.6604 105.426L57.8125 115.465L15.6887 111.902C14.9231 120.637 16.3533 129.424 19.8498 137.468C23.3462 145.512 28.7985 152.559 35.7129 157.97C31.6086 166.968 30.1247 176.937 31.4308 186.737C32.7368 196.537 36.7802 205.772 43.0985 213.387C49.4168 221.002 57.7552 226.69 67.1601 229.799C76.5651 232.909 86.6572 233.315 96.2825 230.971C105.908 228.627 114.678 223.628 121.59 216.545C128.502 209.462 133.278 200.581 135.37 190.918C137.463 181.255 136.788 171.199 133.423 161.901C130.058 152.602 124.139 144.436 116.342 138.336C121.247 127.583 122.387 115.496 119.58 104.018C116.772 92.5397 110.179 82.3365 100.86 75.0473Z" fill="#6C63FF"/>
<path opacity="0.1" d="M16.9988 128.987C19.7896 140.467 26.3838 150.67 35.7127 157.944C31.6085 166.942 30.1245 176.911 31.4306 186.711C32.7367 196.51 36.78 205.746 43.0983 213.361C49.4167 220.976 57.755 226.663 67.16 229.773C76.5649 232.882 86.657 233.288 96.2823 230.944C105.908 228.6 114.678 223.601 121.59 216.519C128.502 209.436 133.278 200.555 135.37 190.892C137.462 181.229 136.788 171.173 133.423 161.875C130.058 152.576 124.138 144.41 116.342 138.31C121.086 127.938 15.5918 123.243 16.9988 128.987Z" fill="black"/>
</g>
<path d="M246.235 73.8452H245.255V21.0817C245.255 9.44619 235.656 0.0219498 223.815 0.0219498H103.718C91.8766 0.0219498 82.2778 9.45497 82.2778 21.0817V42.9532H82.203H81.992C81.6604 42.9508 81.3414 43.0797 81.1048 43.3116C80.8683 43.5435 80.7335 43.8595 80.73 44.1904V54.7203C80.7335 55.0512 80.8683 55.3672 81.1048 55.5991C81.3414 55.831 81.6604 55.9599 81.992 55.9576H82.225H82.2998V66.7112H81.9128C81.7488 66.71 81.5862 66.7411 81.4343 66.8027C81.2823 66.8642 81.144 66.955 81.0272 67.0699C80.9105 67.1848 80.8175 67.3215 80.7537 67.4723C80.6899 67.623 80.6564 67.7848 80.6553 67.9485V88.0825C80.6576 88.4133 80.7913 88.7298 81.027 88.9625C81.2627 89.1953 81.5812 89.3253 81.9128 89.3241H82.2998V97.2215H81.9656C81.8012 97.2198 81.6382 97.2504 81.4857 97.3117C81.3332 97.373 81.1944 97.4637 81.0772 97.5787C80.9599 97.6936 80.8666 97.8306 80.8025 97.9816C80.7384 98.1326 80.7048 98.2948 80.7036 98.4588V118.79C80.7048 118.954 80.7384 119.116 80.8025 119.267C80.8666 119.418 80.9599 119.555 81.0772 119.67C81.1944 119.785 81.3332 119.876 81.4857 119.937C81.6382 119.999 81.8012 120.029 81.9656 120.027H82.2998V304.467C82.2998 316.103 91.8986 325.527 103.74 325.527H223.81C235.652 325.527 245.25 316.094 245.25 304.467V113.306H246.235C246.567 113.308 246.886 113.179 247.122 112.947C247.359 112.716 247.494 112.4 247.497 112.069V75.0824C247.494 74.7516 247.359 74.4356 247.122 74.2037C246.886 73.9717 246.567 73.8428 246.235 73.8452Z" fill="url(#paint0_linear)"/>
<g opacity="0.9">
<path opacity="0.9" d="M244.326 75.1395H241.605C241.048 75.1395 240.598 75.5893 240.598 76.1442V113.104C240.598 113.659 241.048 114.109 241.605 114.109H244.326C244.882 114.109 245.333 113.659 245.333 113.104V76.1442C245.333 75.5893 244.882 75.1395 244.326 75.1395Z" fill="#E5E7EB"/>
<path opacity="0.9" d="M84.7793 44.6116H84.1329C83.5768 44.6116 83.126 45.0614 83.126 45.6163V56.4358C83.126 56.9907 83.5768 57.4405 84.1329 57.4405H84.7793C85.3354 57.4405 85.7862 56.9907 85.7862 56.4358V45.6163C85.7862 45.0614 85.3354 44.6116 84.7793 44.6116Z" fill="#E5E7EB"/>
<path opacity="0.9" d="M85.0212 68.0976H84.0362C83.4801 68.0976 83.0293 68.5474 83.0293 69.1023V89.4206C83.0293 89.9755 83.4801 90.4254 84.0362 90.4254H85.0212C85.5773 90.4254 86.0281 89.9755 86.0281 89.4206V69.1023C86.0281 68.5474 85.5773 68.0976 85.0212 68.0976Z" fill="#E5E7EB"/>
<path opacity="0.9" d="M84.9244 98.2394H84.0846C83.5284 98.2394 83.0776 98.6892 83.0776 99.2441V119.755C83.0776 120.31 83.5284 120.76 84.0846 120.76H84.9244C85.4805 120.76 85.9313 120.31 85.9313 119.755V99.2441C85.9313 98.6892 85.4805 98.2394 84.9244 98.2394Z" fill="#E5E7EB"/>
<path opacity="0.9" d="M226.009 2.21568H101.774C92.3056 2.21568 84.6299 9.87459 84.6299 19.3223V306.582C84.6299 316.03 92.3056 323.689 101.774 323.689H226.009C235.477 323.689 243.153 316.03 243.153 306.582V19.3223C243.153 9.87459 235.477 2.21568 226.009 2.21568Z" fill="white"/>
<path opacity="0.9" d="M169.04 11.8154H150.304C149.364 11.8154 148.603 12.5756 148.603 13.5134V14.6014C148.603 15.5392 149.364 16.2994 150.304 16.2994H169.04C169.98 16.2994 170.742 15.5392 170.742 14.6014V13.5134C170.742 12.5756 169.98 11.8154 169.04 11.8154Z" fill="#E5E7EB"/>
<path opacity="0.9" d="M176.634 16.6021C178.042 16.6021 179.184 15.4628 179.184 14.0574C179.184 12.652 178.042 11.5127 176.634 11.5127C175.225 11.5127 174.083 12.652 174.083 14.0574C174.083 15.4628 175.225 16.6021 176.634 16.6021Z" fill="#E5E7EB"/>
</g>
<path d="M220.776 10.5913H202.63V12.785C202.628 15.5281 201.536 18.1584 199.591 20.0977C197.647 22.0369 195.01 23.1263 192.261 23.1263H134.405C131.656 23.1263 129.019 22.0369 127.075 20.0977C125.131 18.1584 124.038 15.5281 124.037 12.785V10.5913H107.011C103.672 10.5913 100.47 11.9147 98.1095 14.2704C95.7487 16.6261 94.4224 19.8211 94.4224 23.1526V302.756C94.4224 306.087 95.7487 309.282 98.1095 311.638C100.47 313.994 103.672 315.317 107.011 315.317H220.776C224.115 315.317 227.317 313.994 229.678 311.638C232.039 309.282 233.365 306.087 233.365 302.756V23.1526C233.365 19.8211 232.039 16.6261 229.678 14.2704C227.317 11.9147 224.115 10.5913 220.776 10.5913Z" fill="#ECECF3"/>
<path d="M38.3685 334.859C52.2566 334.859 63.5152 332.959 63.5152 330.616C63.5152 328.273 52.2566 326.374 38.3685 326.374C24.4803 326.374 13.2217 328.273 13.2217 330.616C13.2217 332.959 24.4803 334.859 38.3685 334.859Z" fill="#03E8FF"/>
<path d="M48.7673 323.675C49.8446 322.675 50.8559 321.482 51.1637 320.064C51.4715 318.647 50.8647 316.91 49.4884 316.388C47.9495 315.8 46.305 316.862 45.0606 317.937C43.8163 319.011 42.3828 320.24 40.7515 320.012C41.5942 319.251 42.2241 318.285 42.5795 317.208C42.9349 316.131 43.0035 314.981 42.7785 313.869C42.7082 313.412 42.5135 312.983 42.2157 312.628C41.3627 311.715 39.8149 312.106 38.7904 312.825C35.541 315.107 34.6308 319.516 34.6132 323.487C34.2834 322.052 34.5604 320.56 34.5516 319.099C34.5428 317.638 34.1427 316.002 32.9027 315.212C32.1277 314.798 31.2573 314.596 30.3788 314.624C28.919 314.571 27.3009 314.716 26.294 315.782C25.0496 317.099 25.375 319.332 26.4523 320.793C27.5295 322.254 29.174 323.166 30.6866 324.175C31.8343 324.943 32.9995 325.838 33.7074 327.054C33.8005 327.216 33.8757 327.388 33.9317 327.567H43.0907C45.1495 326.53 47.0588 325.221 48.7673 323.675Z" fill="#03E8FF"/>
<g opacity="0.4">
<path opacity="0.4" d="M272.626 309.697C280.553 309.697 286.978 308.613 286.978 307.275C286.978 305.937 280.553 304.853 272.626 304.853C264.7 304.853 258.274 305.937 258.274 307.275C258.274 308.613 264.7 309.697 272.626 309.697Z" fill="#6C63FF"/>
<path opacity="0.4" d="M278.558 303.313C279.213 302.781 279.691 302.064 279.93 301.255C280.106 300.435 279.754 299.452 278.971 299.154C278.092 298.82 277.155 299.426 276.443 300.031C275.731 300.637 274.917 301.348 273.985 301.216C274.467 300.782 274.827 300.23 275.03 299.614C275.233 298.999 275.271 298.341 275.142 297.706C275.102 297.446 274.991 297.201 274.821 297C274.333 296.478 273.449 296.701 272.868 297.109C271.013 298.426 270.494 300.931 270.481 303.195C270.296 302.379 270.454 301.527 270.45 300.689C270.446 299.851 270.212 298.934 269.505 298.469C269.063 298.235 268.567 298.12 268.067 298.136C267.231 298.105 266.308 298.189 265.732 298.794C265.024 299.553 265.209 300.821 265.824 301.655C266.44 302.488 267.376 303.01 268.243 303.585C268.932 303.997 269.521 304.558 269.966 305.226C270.019 305.319 270.062 305.418 270.094 305.52H275.326C276.499 304.933 277.586 304.191 278.558 303.313Z" fill="#6C63FF"/>
</g>
<g opacity="0.4">
<path opacity="0.4" d="M52.809 282.482C60.7354 282.482 67.161 281.397 67.161 280.06C67.161 278.722 60.7354 277.638 52.809 277.638C44.8826 277.638 38.457 278.722 38.457 280.06C38.457 281.397 44.8826 282.482 52.809 282.482Z" fill="#6C63FF"/>
<path opacity="0.4" d="M58.7451 276.098C59.4009 275.566 59.8781 274.846 60.1126 274.036C60.2885 273.22 59.9411 272.237 59.154 271.939C58.2746 271.605 57.3381 272.211 56.6301 272.816C55.9222 273.421 55.1 274.132 54.1722 274.001C54.6525 273.565 55.0114 273.013 55.2141 272.398C55.4168 271.783 55.4562 271.126 55.3286 270.491C55.287 270.229 55.1762 269.984 55.0076 269.78C54.5195 269.262 53.6357 269.486 53.0509 269.894C51.1954 271.21 50.6765 273.711 50.6677 275.975C50.4786 275.159 50.6369 274.308 50.6325 273.47C50.6281 272.632 50.3995 271.715 49.6916 271.276C49.2492 271.038 48.7516 270.921 48.2493 270.938C47.4183 270.907 46.4905 270.991 45.9189 271.601C45.211 272.36 45.3957 273.628 46.0112 274.461C46.6268 275.295 47.5634 275.813 48.4252 276.392C49.1168 276.802 49.7061 277.363 50.1489 278.033C50.2015 278.127 50.2457 278.225 50.2808 278.327H55.5089C56.6832 277.732 57.7717 276.983 58.7451 276.098Z" fill="#6C63FF"/>
</g>
<path d="M127.546 33.8053H105.081V56.2208H127.546V33.8053Z" fill="#D6D8E0"/>
<path d="M191.189 35.4067H144.123V39.6757H191.189V35.4067Z" fill="#D6D8E0"/>
<path d="M221.674 42.8785H144.123V47.1475H221.674V42.8785Z" fill="#D6D8E0"/>
<path d="M221.674 50.3504H144.123V54.6194H221.674V50.3504Z" fill="#D6D8E0"/>
<path d="M127.717 74.8981H105.252V97.3136H127.717V74.8981Z" fill="#D6D8E0"/>
<path d="M191.36 76.4996H144.294V80.7686H191.36V76.4996Z" fill="#D6D8E0"/>
<path d="M221.845 83.9714H144.294V88.2404H221.845V83.9714Z" fill="#D6D8E0"/>
<path d="M221.845 91.4388H144.294V95.7078H221.845V91.4388Z" fill="#D6D8E0"/>
<path d="M127.888 115.991H105.424V138.406H127.888V115.991Z" fill="#D6D8E0"/>
<path d="M191.536 117.588H144.47V121.857H191.536V117.588Z" fill="#D6D8E0"/>
<path d="M222.021 125.06H144.47V129.329H222.021V125.06Z" fill="#D6D8E0"/>
<path d="M222.021 132.532H144.47V136.801H222.021V132.532Z" fill="#D6D8E0"/>
<path d="M128.06 157.079H105.596V179.495H128.06V157.079Z" fill="#D6D8E0"/>
<path d="M191.708 158.681H144.642V162.95H191.708V158.681Z" fill="#D6D8E0"/>
<path d="M222.193 166.153H144.642V170.422H222.193V166.153Z" fill="#D6D8E0"/>
<path d="M222.193 173.625H144.642V177.894H222.193V173.625Z" fill="#D6D8E0"/>
<path d="M128.236 198.172H105.771V220.588H128.236V198.172Z" fill="#D6D8E0"/>
<path d="M191.879 199.774H144.812V204.043H191.879V199.774Z" fill="#D6D8E0"/>
<path d="M222.363 207.246H144.812V211.515H222.363V207.246Z" fill="#D6D8E0"/>
<path d="M222.363 214.717H144.812V218.986H222.363V214.717Z" fill="#D6D8E0"/>
<path d="M128.407 239.265H105.943V261.681H128.407V239.265Z" fill="#D6D8E0"/>
<path d="M192.05 240.867H144.984V245.136H192.05V240.867Z" fill="#D6D8E0"/>
<path d="M222.535 248.338H144.984V252.607H222.535V248.338Z" fill="#D6D8E0"/>
<path d="M222.535 255.81H144.984V260.079H222.535V255.81Z" fill="#D6D8E0"/>
<path d="M128.579 280.358H106.114V302.774H128.579V280.358Z" fill="#D6D8E0"/>
<path d="M192.222 281.959H145.156V286.228H192.222V281.959Z" fill="#D6D8E0"/>
<path d="M222.707 289.431H145.156V293.7H222.707V289.431Z" fill="#D6D8E0"/>
<path d="M222.707 296.903H145.156V301.172H222.707V296.903Z" fill="#D6D8E0"/>
<path d="M259.629 101.394H68.1587V148.888H259.629V101.394Z" fill="url(#paint1_linear)"/>
<path d="M259.093 102.465H69.2275V147.826H259.093V102.465Z" fill="white"/>
<path d="M128.328 113.938H105.864V136.353H128.328V113.938Z" fill="#6C63FF"/>
<g opacity="0.5">
<path opacity="0.5" d="M191.976 115.539H144.91V119.808H191.976V115.539Z" fill="#6C63FF"/>
<path opacity="0.5" d="M222.461 123.011H144.91V127.28H222.461V123.011Z" fill="#6C63FF"/>
<path opacity="0.5" d="M222.461 130.483H144.91V134.752H222.461V130.483Z" fill="#6C63FF"/>
</g>
<path d="M136.388 142.851C135.192 141.671 133.205 141.28 131.767 142.149C130.65 142.82 130.034 144.071 129.472 145.251C128.649 147.006 127.445 148.647 127.075 150.542C126.059 155.768 121.891 159.826 120.22 164.876C119.622 166.679 119.341 168.614 118.395 170.259C117.949 170.98 117.449 171.666 116.9 172.313C114.737 175.036 112.824 177.947 111.184 181.013C110.234 181.197 109.39 182 108.581 182.628C107.544 183.432 106.344 183.999 105.064 184.29C104.548 184.351 104.054 184.531 103.621 184.817C103.014 185.321 102.931 186.23 102.438 186.84C102.081 187.239 101.627 187.541 101.119 187.717C101.119 187.563 101.097 187.41 101.093 187.252C101.071 186.44 101.058 185.624 101.058 184.808C102.476 183.142 103.252 181.026 103.247 178.841C103.242 176.655 102.457 174.543 101.031 172.883C101.066 171.613 101.236 170.349 101.537 169.114C101.691 168.513 101.669 167.776 101.181 167.386C100.939 167.197 100.627 167.127 100.367 166.947C100.002 166.638 99.7027 166.259 99.488 165.832C98.8368 164.912 97.878 164.252 96.7836 163.973C95.6892 163.694 94.531 163.814 93.5168 164.31C91.9295 165.144 90.9665 166.811 89.5595 167.943C88.8384 168.522 88.0073 168.956 87.2862 169.54C85.8431 170.796 84.8171 172.461 84.3446 174.313C83.8822 176.158 83.614 178.046 83.5443 179.947C83.4692 180.517 83.4915 181.095 83.6103 181.658C83.7525 182.129 83.9708 182.573 84.2566 182.974C85.5967 185.15 87.48 186.942 89.7222 188.173C89.7311 188.286 89.7311 188.399 89.7222 188.511C89.7222 188.687 89.665 188.858 89.6254 189.033L89.3704 188.963C88.4294 188.752 87.4137 188.779 86.5695 188.309C85.1273 187.502 84.6919 185.532 83.3113 184.628C83.1939 184.552 83.0704 184.486 82.9419 184.431C82.8444 181.935 82.367 179.469 81.5261 177.117C81.1215 175.994 80.6247 174.849 80.6862 173.651C80.739 172.541 81.271 171.519 81.7459 170.514C83.4036 167.048 84.5644 163.371 85.7033 159.708C86.4332 157.406 87.166 155.102 87.9018 152.797C88.6179 152.267 89.2661 151.651 89.8321 150.963C91.0055 149.6 91.7799 147.941 92.0702 146.168C92.2097 145.283 92.1723 144.379 91.9602 143.509C91.7482 142.638 91.3656 141.818 90.8346 141.096C90.6001 140.751 90.2944 140.459 89.938 140.242C89.5817 140.024 89.1828 139.884 88.768 139.832C88.4034 139.84 88.0443 139.922 87.7124 140.073C87.3805 140.224 87.0829 140.441 86.8377 140.71C86.1088 141.54 85.5474 142.502 85.1844 143.544C84.4633 145.242 83.7334 147.006 83.8037 148.849C83.8609 150.375 84.4325 152.082 83.5399 153.324C80.6159 157.391 78.4085 162.068 76.0913 166.517C75.5056 167.579 75.0029 168.685 74.5875 169.825C74.0273 171.673 73.7617 173.598 73.8004 175.529C73.7784 179.148 74.2753 182.75 74.7678 186.339C74.992 187.958 75.2778 189.678 76.0473 191.078C75.5432 192.812 75.2784 194.607 75.2603 196.413C75.2398 196.83 75.3057 197.247 75.4537 197.637C75.7125 198.091 76.0403 198.503 76.4255 198.857C76.9409 199.441 77.3253 200.129 77.5528 200.873C77.7803 201.618 77.8457 202.402 77.7446 203.174C77.6156 204.628 77.7482 206.093 78.1359 207.5C79.0153 211.396 79.8947 215.288 80.5983 219.215C80.7653 219.945 80.8216 220.696 80.7654 221.443C80.6291 222.505 80.0399 223.514 80.1674 224.58C80.2933 225.074 80.3873 225.575 80.4488 226.081C80.4201 226.467 80.3311 226.846 80.185 227.204C79.1824 230.113 76.487 236.782 76.5178 239.862L77.2213 239.695C76.5134 243.692 74.8557 247.514 73.9851 251.497C73.3813 254.4 73.1069 257.361 73.1673 260.325C73.2252 261.656 73.2017 262.989 73.0969 264.318C72.9606 265.498 72.6572 266.652 72.4901 267.828C72.301 269.404 72.2304 270.992 72.2791 272.579C72.2333 275.073 72.3803 277.567 72.7188 280.038C73.3915 284.25 72.2131 288.435 71.8921 292.687C71.7295 295.661 71.3918 298.623 70.8808 301.558C70.639 302.796 70.3355 304.024 70.1685 305.274C69.676 308.986 70.3927 312.812 69.6188 316.476C69.2539 318.191 68.6031 320.117 69.5617 321.583C69.8651 322.043 70.3004 322.403 70.6302 322.846C70.8108 323.056 70.9341 323.309 70.988 323.58C71.0419 323.852 71.0247 324.132 70.9379 324.395C70.7489 324.799 70.3092 325.062 70.1992 325.492C70.0234 326.167 70.7313 326.72 71.3645 327.01L71.5447 327.08C71.5034 327.311 71.5127 327.548 71.5719 327.776C71.6311 328.003 71.7388 328.215 71.8877 328.396C72.264 328.75 72.7312 328.993 73.2376 329.098L81.5393 331.608C83.3904 332.169 85.4043 332.722 87.2554 332.266C87.2972 332.529 87.4113 332.775 87.5852 332.977C87.9615 333.331 88.4287 333.574 88.9351 333.679L97.1752 336.171C99.2946 336.811 101.621 337.443 103.656 336.574C104.24 336.335 104.752 335.95 105.143 335.456C105.466 334.981 105.681 334.442 105.772 333.876C105.863 333.309 105.828 332.73 105.67 332.178C105.567 331.617 105.287 331.104 104.87 330.713C104.306 330.321 103.64 330.103 102.953 330.085C102.367 330.068 101.793 329.918 101.273 329.647C101.117 329.545 100.986 329.408 100.891 329.247C101.366 328.779 101.826 328.294 102.271 327.791C101.911 327.668 101.783 327.15 101.748 326.773C101.225 321.183 103.335 315.721 104.136 310.166C104.54 307.38 104.611 304.555 104.347 301.751C104.25 300.694 104.105 299.641 104.061 298.579C103.854 293.051 106.501 287.733 106.409 282.201C106.365 279.612 107.728 277.059 108.392 274.553C108.973 272.333 108.99 270.008 109.003 267.709L109.109 249.606C109.109 247.158 109.109 244.653 108.326 242.341C107.931 241.055 107.823 239.698 108.01 238.366C110.248 237.379 112.367 235.918 114.759 236.172C115.397 234.483 114.64 228.854 114.042 227.147C111.691 220.432 111.235 213.202 112.723 206.245C113.264 203.749 112.521 201.094 113.123 198.607C113.234 198.023 113.456 197.466 113.778 196.966C113.942 196.717 114.166 196.513 114.43 196.374C114.694 196.235 114.988 196.166 115.287 196.172C115.287 194.649 115.256 193.1 115.155 191.556C116.126 190.765 116.954 189.814 117.604 188.744C118.923 186.55 119.675 184.08 120.585 181.693C122.199 177.481 124.402 173.528 126.253 169.408C128.104 165.288 128.284 160.782 129.771 156.518C130.589 154.169 132.282 152.224 134.497 151.086C135.377 150.647 136.313 150.332 136.951 149.612C137.434 149.012 137.73 148.285 137.804 147.519C137.941 146.685 137.885 145.83 137.639 145.021C137.394 144.212 136.966 143.469 136.388 142.851ZM84.9426 324.11C85.1229 323.912 85.2987 323.715 85.4658 323.5C84.9118 323.412 84.2347 323.008 84.2215 322.447C84.2611 321.884 84.3825 321.33 84.582 320.802C84.8422 319.849 84.8843 318.85 84.7051 317.88C84.582 317.199 84.3534 316.563 84.2127 315.87C84.0785 315.119 83.9904 314.36 83.9488 313.597C83.7117 310.862 83.175 308.161 82.3483 305.542C81.5524 303.002 82.6429 300.431 82.9243 297.785C83.0606 296.53 82.9991 295.236 83.4388 294.056C83.6982 293.354 84.1247 292.739 84.3842 292.029C84.9866 290.401 84.6304 288.589 84.261 286.891C86.8641 282.183 87.7259 276.567 88.7065 271.267C89.2576 268.293 89.8087 265.319 90.3598 262.348C90.6016 261.031 90.8698 259.645 91.6789 258.583C92.5353 262.521 92.8723 266.553 92.6814 270.578C92.5802 271.747 92.5949 272.923 92.7254 274.088C92.9276 275.365 93.4597 276.572 93.7675 277.827C94.4534 280.595 94.0533 283.504 94.2072 286.351C94.2643 287.501 94.4138 288.65 94.4622 289.8C94.6777 294.885 92.9716 299.83 91.2875 304.634C90.2542 307.578 90.0256 310.925 89.5287 314.01C89.0626 316.963 88.6009 319.92 88.3635 322.899C88.2931 323.807 88.236 324.742 88.1261 325.663C87.8432 325.6 87.5569 325.555 87.2686 325.527C86.6827 325.509 86.1084 325.359 85.5889 325.088C85.2782 324.836 85.0525 324.494 84.9426 324.11Z" fill="url(#paint2_linear)"/>
<path d="M102.961 330.129C103.647 330.149 104.313 330.365 104.879 330.752C105.294 331.14 105.575 331.651 105.679 332.209C105.837 332.758 105.871 333.334 105.78 333.898C105.689 334.461 105.474 334.998 105.151 335.469C104.759 335.959 104.248 336.34 103.665 336.574C101.629 337.452 99.3031 336.816 97.1837 336.18L88.8821 333.683C88.3761 333.58 87.9087 333.338 87.5322 332.985C87.3041 332.679 87.1779 332.309 87.1716 331.927C87.1653 331.545 87.2791 331.171 87.497 330.858C87.9435 330.239 88.552 329.755 89.2558 329.458C91.8413 328.203 94.7522 327.914 97.6103 327.861C98.6655 327.839 99.7033 327.611 100.42 328.423C100.798 328.861 100.732 329.326 101.299 329.699C101.813 329.967 102.382 330.114 102.961 330.129Z" fill="#3F3D56"/>
<path d="M87.2774 325.571C87.9632 325.586 88.6296 325.801 89.1945 326.189C89.6077 326.579 89.8876 327.089 89.9948 327.646C90.153 328.195 90.1877 328.771 90.0965 329.335C90.0053 329.898 89.7904 330.435 89.4672 330.906C89.0756 331.397 88.5638 331.78 87.9809 332.016C85.9451 332.893 83.6191 332.253 81.4997 331.617L73.198 329.12C72.6914 329.019 72.2235 328.777 71.8481 328.423C71.62 328.116 71.4939 327.746 71.4876 327.364C71.4812 326.983 71.5951 326.608 71.813 326.295C72.2584 325.675 72.8672 325.191 73.5718 324.895C76.1573 323.64 79.0637 323.351 81.9042 323.298C82.9551 323.298 83.9972 323.048 84.7139 323.86C85.0921 324.298 85.0261 324.768 85.5933 325.136C86.1144 325.407 86.6903 325.555 87.2774 325.571Z" fill="#3F3D56"/>
<path d="M94.4881 235.676C89.5973 235.186 84.6775 235.048 79.7668 235.264C79.4426 235.26 79.12 235.31 78.8126 235.413C77.7309 235.852 77.5639 237.265 77.4583 238.423C77.045 243.104 74.974 247.47 73.9407 252.063C73.3362 254.948 73.0618 257.892 73.1228 260.838C73.1803 262.155 73.1568 263.473 73.0525 264.787C72.9162 265.963 72.6128 267.108 72.4457 268.297C72.2566 269.863 72.186 271.441 72.2346 273.018C72.1893 275.493 72.3363 277.967 72.6743 280.42C73.3471 284.605 72.1687 288.756 71.8477 292.985C71.6848 295.941 71.3471 298.884 70.8364 301.8C70.5945 303.028 70.2911 304.248 70.124 305.489C69.6316 309.179 70.3483 312.983 69.5744 316.62C69.2094 318.323 68.5587 320.236 69.5172 321.692C69.8206 322.153 70.2559 322.508 70.5857 322.947C70.766 323.155 70.8891 323.407 70.943 323.677C70.997 323.946 70.9799 324.226 70.8935 324.487C70.7044 324.886 70.2647 325.15 70.1548 325.575C69.9789 326.246 70.6869 326.799 71.32 327.084C76.0908 329.23 82.2423 327.716 85.461 323.596C84.9069 323.509 84.2298 323.109 84.2166 322.552C84.2562 321.992 84.3777 321.441 84.5772 320.916C84.8377 319.969 84.8798 318.976 84.7003 318.011C84.5772 317.34 84.3485 316.695 84.2078 316.015C84.0736 315.269 83.9855 314.516 83.944 313.76C83.7068 311.042 83.17 308.358 82.3435 305.757C81.5476 303.234 82.6381 300.681 82.9195 298.048C83.0558 296.807 82.9942 295.517 83.4339 294.345C83.6934 293.648 84.1199 293.029 84.3793 292.331C84.9817 290.712 84.6255 288.918 84.2562 287.229C86.8592 282.547 87.7211 276.971 88.7016 271.706C89.2527 268.752 89.8038 265.798 90.3549 262.843C90.5967 261.527 90.865 260.163 91.674 259.105C92.5306 263.018 92.8676 267.026 92.6765 271.026C92.5768 272.178 92.5916 273.338 92.7205 274.488C92.9228 275.756 93.4548 276.953 93.7626 278.204C94.4486 280.95 94.0484 283.842 94.2023 286.672C94.2595 287.812 94.409 288.953 94.4574 290.098C94.6728 295.148 92.9668 300.062 91.2827 304.831C90.2494 307.758 90.0207 311.083 89.5239 314.146C89.0578 317.081 88.5961 320.016 88.3586 322.978C88.1432 325.698 88.0509 328.642 86.3536 330.779C87.9014 331.783 89.5063 332.806 91.3179 333.152C93.435 333.482 95.6011 333.065 97.443 331.972C99.2709 330.878 100.905 329.491 102.28 327.865C101.919 327.743 101.792 327.225 101.756 326.852C101.233 321.302 103.344 315.883 104.144 310.355C104.548 307.586 104.619 304.779 104.355 301.993C104.258 300.944 104.113 299.9 104.069 298.847C103.863 293.354 106.51 288.067 106.417 282.574C106.373 280.003 107.736 277.462 108.4 274.975C108.981 272.781 108.998 270.46 109.012 268.179L109.117 250.19C109.117 247.755 109.117 245.267 108.334 242.968C107.367 240.208 108.471 237.032 108.638 234.114C104.069 235.554 99.2617 236.085 94.4881 235.676Z" fill="#3F3D56"/>
<path d="M110.168 183.996C112.016 180.225 114.274 176.667 116.9 173.388C117.447 172.746 117.947 172.066 118.395 171.352C119.34 169.72 119.622 167.794 120.22 166.004C121.891 160.984 126.059 156.952 127.075 151.762C127.444 149.88 128.649 148.252 129.471 146.497C130.034 145.321 130.65 144.084 131.766 143.426C133.204 142.548 135.192 142.956 136.388 144.128C136.963 144.739 137.39 145.475 137.635 146.278C137.879 147.08 137.936 147.929 137.799 148.756C137.728 149.519 137.431 150.242 136.946 150.836C136.309 151.551 135.354 151.876 134.493 152.306C132.279 153.428 130.586 155.36 129.766 157.698C128.297 161.936 128.113 166.42 126.248 170.505C124.384 174.59 122.194 178.517 120.58 182.698C119.67 185.071 118.936 187.524 117.599 189.718C116.262 191.911 114.161 193.75 111.637 194.079C111.64 192.493 111.391 190.918 110.898 189.411C110.366 187.669 109.368 185.611 110.168 183.996Z" fill="#E0B1B8"/>
<path d="M82.9417 187.27C83.0541 184.168 82.5705 181.073 81.5171 178.152C81.1125 177.034 80.6157 175.897 80.6772 174.708C80.73 173.607 81.262 172.589 81.7369 171.593C83.3946 168.149 84.5554 164.494 85.6943 160.853L87.8928 153.991C88.6076 153.464 89.2558 152.852 89.8231 152.17C90.9943 150.817 91.7687 149.169 92.0612 147.405C92.2004 146.525 92.1628 145.626 91.9507 144.761C91.7386 143.895 91.3561 143.081 90.8256 142.364C90.5906 142.02 90.2845 141.731 89.9281 141.515C89.5716 141.3 89.173 141.163 88.759 141.114C88.3941 141.12 88.0345 141.201 87.7024 141.352C87.3703 141.503 87.0729 141.72 86.8287 141.991C86.1001 142.814 85.5386 143.771 85.1754 144.808C84.4543 146.493 83.7244 148.248 83.7947 150.073C83.8519 151.591 84.4235 153.284 83.5309 154.517C80.6069 158.558 78.3995 163.204 76.0823 167.623C75.4967 168.678 74.9939 169.776 74.5785 170.909C74.0176 172.748 73.7519 174.664 73.7914 176.586C73.7695 180.184 74.2663 183.76 74.7588 187.327C75.0666 189.555 75.4799 191.986 77.1728 193.469C78.936 191.236 80.7036 189.033 82.9417 187.27Z" fill="#E0B1B8"/>
<path d="M94.1322 188.985C99.1712 188.985 103.256 184.909 103.256 179.881C103.256 174.853 99.1712 170.777 94.1322 170.777C89.0932 170.777 85.0083 174.853 85.0083 179.881C85.0083 184.909 89.0932 188.985 94.1322 188.985Z" fill="#E0B1B8"/>
<path d="M89.7002 189.468C89.4803 191.117 88.5965 192.587 87.7347 194.009C87.2114 194.886 86.5519 195.821 85.5361 195.917C88.1772 197.303 90.9529 198.418 93.8202 199.243C94.7966 199.569 95.82 199.734 96.8498 199.73C97.7212 199.665 98.5742 199.447 99.3693 199.085C101.109 198.324 102.652 197.178 103.882 195.734C105.111 194.289 105.995 192.585 106.466 190.749C105.332 190.779 104.197 190.692 103.08 190.49C102.456 190.376 101.783 190.192 101.418 189.678C101.165 189.231 101.046 188.721 101.075 188.208C101.031 186.69 101.031 185.172 101.075 183.654C98.8337 183.51 96.5849 183.786 94.4446 184.466C93.5652 184.751 92.6858 185.098 91.7844 185.321C91.2303 185.457 89.7045 185.321 89.2956 185.642C88.6756 186.129 89.8628 188.349 89.7002 189.468Z" fill="#E0B1B8"/>
<path d="M93.7232 195C93.6218 193.804 93.1461 192.67 92.3633 191.758C91.5806 190.846 90.5304 190.203 89.3614 189.92C88.4204 189.713 87.4047 189.735 86.5604 189.27C85.1182 188.467 84.6829 186.51 83.3022 185.611C81.9215 184.712 79.9517 185.212 78.7469 186.353C77.5421 187.493 76.9309 189.108 76.4384 190.687C75.7011 192.828 75.302 195.071 75.2556 197.334C75.2352 197.75 75.301 198.165 75.4491 198.554C75.7091 199.006 76.0368 199.416 76.4208 199.769C76.9357 200.347 77.3199 201.028 77.5476 201.767C77.7752 202.506 77.8408 203.285 77.7399 204.052C77.611 205.498 77.7436 206.956 78.1313 208.356C79.0107 212.221 79.8901 216.091 80.5936 219.991C80.7585 220.71 80.8148 221.449 80.7607 222.185C80.6244 223.238 80.0352 224.243 80.1627 225.296C80.2887 225.788 80.3827 226.287 80.4441 226.792C80.4154 227.173 80.3264 227.548 80.1803 227.902C79.1778 230.797 76.4824 237.422 76.5132 240.48C81.196 239.283 88.0994 239.015 92.9318 238.998C94.2634 238.979 95.5951 239.038 96.9199 239.173C100.099 239.511 103.353 240.437 106.435 239.581C109.293 238.787 111.83 236.51 114.79 236.799C115.427 235.119 114.671 229.525 114.073 227.831C111.722 221.163 111.266 213.977 112.754 207.066C113.295 204.582 112.551 201.95 113.154 199.48C113.264 198.898 113.486 198.344 113.809 197.848C113.973 197.599 114.197 197.397 114.461 197.258C114.725 197.12 115.019 197.051 115.317 197.058C115.372 193.092 115.004 189.131 114.218 185.243C113.923 183.86 113.312 182.228 111.918 181.991C110.661 181.781 109.601 182.838 108.594 183.619C107.555 184.416 106.355 184.979 105.076 185.269C104.561 185.328 104.067 185.507 103.634 185.791C103.027 186.291 102.944 187.195 102.451 187.805C101.572 188.897 99.6065 188.801 98.9821 190.06C98.8415 190.436 98.7298 190.821 98.648 191.214C98.3531 191.96 97.8513 192.607 97.2013 193.078C96.2185 193.995 95.0236 194.656 93.7232 195Z" fill="#021EE8"/>
<path d="M101.546 170.202C101.699 169.601 101.677 168.886 101.189 168.482C100.948 168.294 100.635 168.224 100.376 168.044C100.01 167.737 99.7111 167.359 99.4965 166.934C98.8387 166.017 97.8764 165.363 96.7807 165.087C95.685 164.811 94.5268 164.933 93.5121 165.429C91.9248 166.258 90.9618 167.916 89.5548 169.04C88.8337 169.619 88.0026 170.049 87.2815 170.624C85.8401 171.871 84.8139 173.527 84.3399 175.371C83.8787 177.205 83.612 179.083 83.544 180.974C83.4689 181.541 83.4912 182.116 83.6099 182.676C83.7536 183.139 83.9719 183.577 84.2563 183.97C85.7029 186.164 87.6201 188.16 90.0165 189.288C92.4129 190.415 95.3281 190.604 97.6937 189.424C97.9309 189.324 98.1351 189.16 98.2829 188.95C98.4185 188.63 98.4493 188.275 98.3709 187.936C98.2459 186.596 98.5132 185.249 99.1404 184.058C99.5801 183.18 100.235 182.426 100.591 181.513C100.914 180.496 101.054 179.429 101.005 178.363C101.04 175.612 100.851 172.861 101.546 170.202Z" fill="#2D293D"/>
<path d="M128.236 114.205H105.771V136.621H128.236V114.205Z" fill="#021EE8"/>
<path d="M120.04 133.299C119.714 133.926 119.174 134.415 118.518 134.677C118.13 134.819 117.722 134.896 117.309 134.905C116.863 134.938 116.415 134.883 115.99 134.743C115.424 134.521 114.939 134.134 114.596 133.633C114.258 133.132 113.986 132.589 113.787 132.018C113.653 131.734 113.597 131.419 113.624 131.106C113.796 131.085 113.963 131.03 114.113 130.945C114.264 130.86 114.397 130.746 114.504 130.61C114.567 130.473 114.602 130.324 114.605 130.174C114.609 130.023 114.582 129.873 114.526 129.733C114.499 129.645 114.473 129.561 114.442 129.482C114.376 129.289 114.148 128.925 114.306 128.763C114.464 128.601 114.833 128.605 114.979 128.539C115.409 128.283 115.868 128.078 116.346 127.929C116.78 127.872 117.221 127.9 117.643 128.013C117.701 128.022 117.756 128.043 117.806 128.074C117.861 128.12 117.903 128.181 117.925 128.25C118.048 128.548 118.118 128.877 118.215 129.184C118.299 129.506 118.466 129.801 118.698 130.04C118.899 130.21 119.127 130.346 119.371 130.443L119.96 130.711C120.064 130.752 120.158 130.813 120.237 130.891C120.313 130.997 120.358 131.121 120.369 131.251C120.478 131.951 120.363 132.668 120.04 133.299Z" fill="#FED9DE"/>
<path opacity="0.1" d="M118.211 129.197C117.743 129.682 117.127 129.999 116.46 130.098C115.792 130.197 115.111 130.073 114.522 129.746C114.495 129.658 114.469 129.575 114.438 129.496C114.372 129.303 114.144 128.938 114.302 128.776C114.46 128.614 114.829 128.618 114.975 128.552C115.405 128.296 115.864 128.091 116.342 127.942C116.776 127.885 117.217 127.913 117.639 128.026C117.697 128.035 117.752 128.056 117.802 128.087C117.857 128.133 117.899 128.194 117.921 128.263C118.044 128.574 118.114 128.89 118.211 129.197Z" fill="black"/>
<path d="M116.012 130C117.697 130 119.064 128.637 119.064 126.955C119.064 125.274 117.697 123.91 116.012 123.91C114.327 123.91 112.96 125.274 112.96 126.955C112.96 128.637 114.327 130 116.012 130Z" fill="#FED9DE"/>
<path d="M125.268 136.616H110.907C110.467 135.638 110.072 134.655 109.627 133.677C109.675 133.444 109.763 133.221 109.887 133.019C109.95 132.92 110.037 132.838 110.14 132.781C110.243 132.723 110.358 132.692 110.476 132.69C110.604 132.69 110.749 132.738 110.841 132.646C110.933 132.554 110.903 132.479 110.969 132.418C111.034 132.356 111.193 132.356 111.316 132.365C111.448 132.369 111.579 132.341 111.697 132.282C111.816 132.223 111.917 132.135 111.993 132.027C112.04 131.945 112.098 131.87 112.165 131.803C112.28 131.747 112.406 131.715 112.534 131.707C112.89 131.628 113.101 131.268 113.369 131.044C113.434 130.972 113.518 130.919 113.612 130.894C113.705 130.868 113.804 130.87 113.897 130.9C113.94 130.922 113.978 130.953 114.007 130.992C114.079 131.102 114.128 131.226 114.152 131.356C114.311 132.085 114.716 132.737 115.3 133.203C115.61 133.437 115.968 133.598 116.349 133.676C116.729 133.753 117.123 133.745 117.499 133.651C117.876 133.557 118.228 133.381 118.527 133.134C118.827 132.887 119.067 132.576 119.231 132.225C119.443 131.694 119.565 131.132 119.591 130.562C119.591 130.531 119.591 130.513 119.591 130.487C119.77 130.443 119.957 130.438 120.137 130.474C120.318 130.51 120.489 130.585 120.638 130.693C120.93 130.916 121.242 131.112 121.57 131.277C121.961 131.43 122.449 131.43 122.718 131.716C122.832 131.83 122.911 131.988 123.056 132.058C123.146 132.093 123.241 132.115 123.337 132.124C123.583 132.19 123.81 132.311 124.002 132.479C124.193 132.646 124.343 132.855 124.441 133.089C124.759 133.793 124.967 134.542 125.057 135.309L125.268 136.616Z" fill="#F86D70"/>
<path d="M113.906 122.015C113.694 122.187 113.513 122.395 113.374 122.629C113.112 123.06 112.746 123.419 112.31 123.673C112.127 123.737 111.96 123.841 111.822 123.976C111.754 124.079 111.71 124.196 111.694 124.318C111.605 124.744 111.559 125.178 111.558 125.613C111.542 125.832 111.578 126.051 111.664 126.253C111.751 126.438 111.919 126.595 111.949 126.797C111.956 126.957 111.938 127.117 111.897 127.271C111.876 127.352 111.88 127.437 111.91 127.516C111.939 127.594 111.991 127.662 112.059 127.71C112.139 127.738 112.222 127.757 112.305 127.767C112.745 127.863 112.895 128.381 112.961 128.807C113.11 128.807 113.176 128.627 113.211 128.486L113.651 126.446C113.704 126.227 113.783 125.968 114.007 125.893C114.161 125.861 114.32 125.861 114.473 125.893C115.08 125.946 115.59 125.477 116.184 125.345C116.375 125.309 116.57 125.297 116.764 125.31C117.23 125.31 117.775 125.525 117.877 125.959C117.877 126.029 117.903 126.117 117.969 126.152C118.036 126.172 118.108 126.172 118.176 126.152C118.47 126.122 118.646 126.455 118.734 126.727L119.042 127.723C119.09 127.872 119.169 128.052 119.332 128.07C119.406 128.069 119.478 128.042 119.534 127.993C119.59 127.943 119.626 127.876 119.635 127.802C119.642 127.653 119.621 127.505 119.574 127.363C119.429 126.714 119.653 126.047 119.789 125.393C119.926 124.74 119.948 123.989 119.49 123.485C119.323 123.305 119.103 123.169 118.949 122.976C118.796 122.783 118.725 122.577 118.576 122.397C117.978 121.874 117.233 121.549 116.443 121.467C115.561 121.389 114.677 121.58 113.906 122.015Z" fill="#3F3D56"/>
<g opacity="0.1">
<path opacity="0.1" d="M119.349 127.596C119.186 127.596 119.107 127.398 119.059 127.249L118.751 126.253C118.663 125.981 118.487 125.648 118.193 125.674C118.125 125.694 118.053 125.694 117.986 125.674C117.92 125.639 117.911 125.556 117.894 125.481C117.792 125.042 117.247 124.854 116.781 124.832C116.587 124.818 116.391 124.832 116.201 124.871C115.607 124.998 115.097 125.468 114.49 125.415C114.336 125.387 114.178 125.387 114.024 125.415C113.8 125.494 113.721 125.749 113.668 125.972C113.514 126.653 113.365 127.333 113.228 128.008C113.193 128.149 113.127 128.32 112.978 128.329C112.912 127.89 112.762 127.385 112.323 127.289C112.238 127.281 112.155 127.262 112.076 127.232C112.018 127.2 111.972 127.149 111.949 127.087C111.949 127.148 111.922 127.214 111.914 127.276C111.893 127.356 111.898 127.442 111.927 127.52C111.956 127.598 112.008 127.666 112.076 127.714C112.156 127.743 112.239 127.762 112.323 127.771C112.762 127.868 112.912 128.386 112.978 128.811C113.127 128.811 113.193 128.631 113.228 128.491C113.382 127.811 113.532 127.131 113.668 126.451C113.721 126.231 113.8 125.972 114.024 125.898C114.178 125.865 114.337 125.865 114.49 125.898C115.097 125.951 115.607 125.481 116.201 125.349C116.392 125.314 116.587 125.302 116.781 125.314C117.247 125.314 117.792 125.529 117.894 125.964C117.894 126.034 117.92 126.122 117.986 126.157C118.053 126.176 118.125 126.176 118.193 126.157C118.487 126.126 118.663 126.459 118.751 126.731L119.059 127.727C119.107 127.877 119.186 128.056 119.349 128.074C119.423 128.074 119.495 128.046 119.551 127.997C119.607 127.948 119.643 127.88 119.652 127.806C119.662 127.688 119.647 127.568 119.608 127.455C119.583 127.501 119.545 127.539 119.499 127.564C119.453 127.589 119.401 127.6 119.349 127.596Z" fill="black"/>
<path opacity="0.1" d="M111.949 126.332C111.918 126.13 111.751 125.972 111.663 125.788C111.605 125.664 111.571 125.53 111.562 125.393C111.562 125.468 111.562 125.538 111.562 125.613C111.546 125.832 111.582 126.051 111.667 126.253C111.738 126.402 111.861 126.534 111.922 126.692C111.954 126.575 111.962 126.453 111.949 126.332Z" fill="black"/>
<path opacity="0.1" d="M119.806 124.924C119.632 125.492 119.547 126.084 119.556 126.679C119.613 126.247 119.697 125.819 119.806 125.398C119.88 125.076 119.905 124.744 119.881 124.415C119.867 124.586 119.842 124.756 119.806 124.924Z" fill="black"/>
</g>
<path d="M112.055 136.616H108.629C108.781 135.696 109.051 134.799 109.434 133.949C109.464 133.861 109.514 133.782 109.579 133.716C109.593 133.701 109.61 133.687 109.628 133.677C109.729 133.598 109.869 133.567 109.979 133.493C110.089 133.418 110.102 133.339 110.204 133.308C110.584 133.299 110.963 133.362 111.32 133.493C111.422 133.504 111.521 133.529 111.615 133.567C111.838 133.691 112.005 133.895 112.081 134.137C112.371 134.923 112.151 135.774 112.055 136.616Z" fill="#F86D70"/>
</g>
<defs>
<linearGradient id="paint0_linear" x1="164.067" y1="325.536" x2="164.067" y2="4.48249e-06" gradientUnits="userSpaceOnUse">
<stop stop-color="#808080" stop-opacity="0.25"/>
<stop offset="0.54" stop-color="#808080" stop-opacity="0.12"/>
<stop offset="1" stop-color="#808080" stop-opacity="0.1"/>
</linearGradient>
<linearGradient id="paint1_linear" x1="71436.7" y1="16219" x2="71436.7" y2="11077.3" gradientUnits="userSpaceOnUse">
<stop stop-color="#808080" stop-opacity="0.25"/>
<stop offset="0.54" stop-color="#808080" stop-opacity="0.12"/>
<stop offset="1" stop-color="#808080" stop-opacity="0.1"/>
</linearGradient>
<linearGradient id="paint2_linear" x1="28763.6" y1="120281" x2="39536.6" y2="120281" gradientUnits="userSpaceOnUse">
<stop stop-color="#808080" stop-opacity="0.25"/>
<stop offset="0.54" stop-color="#808080" stop-opacity="0.12"/>
<stop offset="1" stop-color="#808080" stop-opacity="0.1"/>
</linearGradient>
<clipPath id="clip0">
<rect width="299" height="337" fill="white"/>
</clipPath>
</defs>
</svg>
